<mxfile host="app.diagrams.net" modified="2022-04-11T03:37:17.855Z" agent="5.0 (Macintosh; Intel Mac OS X 10_15_7) AppleWebKit/537.36 (KHTML, like Gecko) Chrome/100.0.4896.75 Safari/537.36" etag="zpg1JZEIpcE4wYSt94k3" version="17.4.0" type="github">
  <diagram id="q-RwxI8ae4FizTCxGcju" name="Page-1">
    <mxGraphModel dx="4807" dy="2047" grid="1" gridSize="10" guides="1" tooltips="1" connect="1" arrows="1" fold="1" page="1" pageScale="1" pageWidth="827" pageHeight="1169" math="0" shadow="0">
      <root>
        <mxCell id="0" />
        <mxCell id="1" parent="0" />
        <mxCell id="IhZPwNtbvATyJCZcTNzT-1" value="IDLE" style="ellipse;whiteSpace=wrap;html=1;" vertex="1" parent="1">
          <mxGeometry x="-1160" y="280" width="160" height="120" as="geometry" />
        </mxCell>
        <mxCell id="IhZPwNtbvATyJCZcTNzT-2" value="rst" style="text;html=1;align=center;verticalAlign=middle;resizable=0;points=[];autosize=1;strokeColor=none;fillColor=none;" vertex="1" parent="1">
          <mxGeometry x="-1135" y="235" width="30" height="20" as="geometry" />
        </mxCell>
        <mxCell id="IhZPwNtbvATyJCZcTNzT-3" value="" style="curved=1;endArrow=classic;html=1;rounded=0;entryX=0.396;entryY=-0.006;entryDx=0;entryDy=0;entryPerimeter=0;" edge="1" parent="1">
          <mxGeometry width="50" height="50" relative="1" as="geometry">
            <mxPoint x="-1156.5640235470282" y="311.7179882264861" as="sourcePoint" />
            <mxPoint x="-1106.6400000000003" y="284.28" as="targetPoint" />
            <Array as="points">
              <mxPoint x="-1170" y="305" />
              <mxPoint x="-1170" y="235" />
            </Array>
          </mxGeometry>
        </mxCell>
        <mxCell id="IhZPwNtbvATyJCZcTNzT-4" value="COMPARE_TAGS_Rd&lt;br&gt;&lt;br&gt;comp = 1,&lt;br&gt;cache_wr(Write) = 0" style="ellipse;whiteSpace=wrap;html=1;" vertex="1" parent="1">
          <mxGeometry x="-1365" y="440" width="160" height="120" as="geometry" />
        </mxCell>
        <mxCell id="IhZPwNtbvATyJCZcTNzT-5" value="COMPARE_TAGS_Wr&lt;br&gt;&lt;br&gt;comp = 1,&lt;br&gt;cache_wr(Write) = 1" style="ellipse;whiteSpace=wrap;html=1;" vertex="1" parent="1">
          <mxGeometry x="-970" y="443.84" width="160" height="120" as="geometry" />
        </mxCell>
        <mxCell id="IhZPwNtbvATyJCZcTNzT-6" value="" style="endArrow=classic;html=1;rounded=0;exitX=0.052;exitY=0.767;exitDx=0;exitDy=0;exitPerimeter=0;" edge="1" parent="1" source="IhZPwNtbvATyJCZcTNzT-1" target="IhZPwNtbvATyJCZcTNzT-4">
          <mxGeometry width="50" height="50" relative="1" as="geometry">
            <mxPoint x="-1160" y="400" as="sourcePoint" />
            <mxPoint x="-1350.08" y="500" as="targetPoint" />
          </mxGeometry>
        </mxCell>
        <mxCell id="IhZPwNtbvATyJCZcTNzT-7" value="Rd&amp;nbsp;" style="text;html=1;align=center;verticalAlign=middle;resizable=0;points=[];autosize=1;strokeColor=none;fillColor=none;" vertex="1" parent="1">
          <mxGeometry x="-1235" y="390" width="30" height="20" as="geometry" />
        </mxCell>
        <mxCell id="IhZPwNtbvATyJCZcTNzT-8" value="" style="endArrow=classic;html=1;rounded=0;entryX=0;entryY=1;entryDx=0;entryDy=0;exitX=0.904;exitY=0.191;exitDx=0;exitDy=0;exitPerimeter=0;" edge="1" parent="1" source="IhZPwNtbvATyJCZcTNzT-4" target="IhZPwNtbvATyJCZcTNzT-1">
          <mxGeometry width="50" height="50" relative="1" as="geometry">
            <mxPoint x="-1180" y="530" as="sourcePoint" />
            <mxPoint x="-1130" y="480" as="targetPoint" />
          </mxGeometry>
        </mxCell>
        <mxCell id="IhZPwNtbvATyJCZcTNzT-9" value="&lt;font color=&quot;#ff0000&quot;&gt;(hit0 &amp;amp; valid0)&lt;br&gt;| (hit1 &amp;amp; valid1)&lt;/font&gt;" style="text;html=1;align=center;verticalAlign=middle;resizable=0;points=[];autosize=1;strokeColor=none;fillColor=none;" vertex="1" parent="1">
          <mxGeometry x="-1195" y="425" width="100" height="30" as="geometry" />
        </mxCell>
        <mxCell id="IhZPwNtbvATyJCZcTNzT-10" value="" style="endArrow=classic;html=1;rounded=0;exitX=0.813;exitY=0.917;exitDx=0;exitDy=0;exitPerimeter=0;entryX=0;entryY=0;entryDx=0;entryDy=0;" edge="1" parent="1" source="IhZPwNtbvATyJCZcTNzT-1" target="IhZPwNtbvATyJCZcTNzT-5">
          <mxGeometry width="50" height="50" relative="1" as="geometry">
            <mxPoint x="-781.1200000000001" y="379.12000000000006" as="sourcePoint" />
            <mxPoint x="-970.0031655211501" y="559.9074480163647" as="targetPoint" />
          </mxGeometry>
        </mxCell>
        <mxCell id="IhZPwNtbvATyJCZcTNzT-11" value="Wr" style="text;html=1;align=center;verticalAlign=middle;resizable=0;points=[];autosize=1;strokeColor=none;fillColor=none;" vertex="1" parent="1">
          <mxGeometry x="-1000" y="390" width="30" height="20" as="geometry" />
        </mxCell>
        <mxCell id="IhZPwNtbvATyJCZcTNzT-12" value="" style="endArrow=classic;html=1;rounded=0;entryX=0.711;entryY=0.994;entryDx=0;entryDy=0;entryPerimeter=0;exitX=0.063;exitY=0.208;exitDx=0;exitDy=0;exitPerimeter=0;" edge="1" parent="1" source="IhZPwNtbvATyJCZcTNzT-5" target="IhZPwNtbvATyJCZcTNzT-1">
          <mxGeometry width="50" height="50" relative="1" as="geometry">
            <mxPoint x="-954.8000000000002" y="570" as="sourcePoint" />
            <mxPoint x="-930" y="380" as="targetPoint" />
          </mxGeometry>
        </mxCell>
        <mxCell id="IhZPwNtbvATyJCZcTNzT-14" value="ALLOC_0&lt;br&gt;&lt;br&gt;&lt;div style=&quot;text-align: left&quot;&gt;&lt;span&gt;&lt;span&gt;	&lt;/span&gt;if (Rd) {&lt;/span&gt;&lt;/div&gt;&lt;blockquote style=&quot;margin: 0 0 0 40px ; border: none ; padding: 0px&quot;&gt;&lt;span&gt;&lt;div style=&quot;text-align: left&quot;&gt;&lt;span&gt;mem_rd = 1&lt;/span&gt;&lt;/div&gt;&lt;/span&gt;&lt;span&gt;&lt;div style=&quot;text-align: left&quot;&gt;&lt;span&gt;mem_offset_select = 1&#39;b1&lt;/span&gt;&lt;/div&gt;&lt;div style=&quot;text-align: left&quot;&gt;&lt;span&gt;mem_offset = 3&#39;b000&lt;/span&gt;&lt;/div&gt;&lt;/span&gt;&lt;/blockquote&gt;&lt;div style=&quot;text-align: left&quot;&gt;&lt;span&gt;}&lt;/span&gt;&lt;/div&gt;&lt;div style=&quot;text-align: left&quot;&gt;&lt;span&gt;else if (Wr) {&lt;/span&gt;&lt;/div&gt;&lt;div style=&quot;text-align: left&quot;&gt;&lt;div&gt;&lt;span style=&quot;white-space: pre&quot;&gt;	&lt;/span&gt;write = 1&lt;/div&gt;&lt;div&gt;&lt;span style=&quot;white-space: pre&quot;&gt;	&lt;/span&gt;cache_offset_select = 2&#39;b01&lt;br&gt;&lt;/div&gt;&lt;div&gt;&lt;span style=&quot;white-space: pre&quot;&gt;	&lt;/span&gt;cache_select = out(1&#39;b0)&lt;br&gt;&lt;/div&gt;&lt;div&gt;&lt;span style=&quot;white-space: pre&quot;&gt;	&lt;/span&gt;cache_wr_offset = 3&#39;b000&lt;/div&gt;&lt;/div&gt;&lt;div style=&quot;text-align: left&quot;&gt;&lt;span&gt;}&lt;/span&gt;&lt;/div&gt;" style="ellipse;whiteSpace=wrap;html=1;" vertex="1" parent="1">
          <mxGeometry x="-1620" y="595" width="330" height="260" as="geometry" />
        </mxCell>
        <mxCell id="IhZPwNtbvATyJCZcTNzT-15" value="" style="endArrow=classic;html=1;rounded=0;exitX=0.183;exitY=0.913;exitDx=0;exitDy=0;exitPerimeter=0;" edge="1" parent="1" source="IhZPwNtbvATyJCZcTNzT-4">
          <mxGeometry width="50" height="50" relative="1" as="geometry">
            <mxPoint x="-1610" y="560" as="sourcePoint" />
            <mxPoint x="-1380" y="610" as="targetPoint" />
          </mxGeometry>
        </mxCell>
        <mxCell id="IhZPwNtbvATyJCZcTNzT-17" value="stall" style="text;html=1;align=center;verticalAlign=middle;resizable=0;points=[];autosize=1;strokeColor=none;fillColor=none;" vertex="1" parent="1">
          <mxGeometry x="-1580" y="567.6799999999998" width="40" height="20" as="geometry" />
        </mxCell>
        <mxCell id="IhZPwNtbvATyJCZcTNzT-18" value="" style="curved=1;endArrow=classic;html=1;rounded=0;entryX=0.396;entryY=-0.006;entryDx=0;entryDy=0;entryPerimeter=0;exitX=0.095;exitY=0.192;exitDx=0;exitDy=0;exitPerimeter=0;" edge="1" parent="1" source="IhZPwNtbvATyJCZcTNzT-14">
          <mxGeometry width="50" height="50" relative="1" as="geometry">
            <mxPoint x="-1587" y="640" as="sourcePoint" />
            <mxPoint x="-1536.6400000000003" y="613.1200000000001" as="targetPoint" />
            <Array as="points">
              <mxPoint x="-1600" y="633.84" />
              <mxPoint x="-1600" y="563.8399999999999" />
            </Array>
          </mxGeometry>
        </mxCell>
        <mxCell id="IhZPwNtbvATyJCZcTNzT-19" value="" style="endArrow=classic;html=1;rounded=0;exitX=0.183;exitY=0.913;exitDx=0;exitDy=0;exitPerimeter=0;" edge="1" parent="1">
          <mxGeometry width="50" height="50" relative="1" as="geometry">
            <mxPoint x="-935.7199999999993" y="550" as="sourcePoint" />
            <mxPoint x="-1320" y="650" as="targetPoint" />
          </mxGeometry>
        </mxCell>
        <mxCell id="IhZPwNtbvATyJCZcTNzT-21" value="WB_0&lt;br&gt;&lt;br&gt;mem_wr = 1&lt;br&gt;tag_select = 1&#39;b1&lt;br&gt;&lt;span style=&quot;color: rgba(0 , 0 , 0 , 0) ; font-family: monospace ; font-size: 0px&quot;&gt;%3CmxGraphModel%3E%3Croot%3E%3CmxCell%20id%3D%220%22%2F%3E%3CmxCell%20id%3D%221%22%20parent%3D%220%22%2F%3E%3CmxCell%20id%3D%222%22%20value%3D%22tag_select%22%20style%3D%22text%3Bhtml%3D1%3Balign%3Dcenter%3BverticalAlign%3Dmiddle%3Bresizable%3D0%3Bpoints%3D%5B%5D%3Bautosize%3D1%3BstrokeColor%3Dnone%3BfillColor%3Dnone%3B%22%20vertex%3D%221%22%20parent%3D%221%22%3E%3CmxGeometry%20x%3D%222430%22%20y%3D%22310%22%20width%3D%2270%22%20height%3D%2220%22%20as%3D%22geometry%22%2F%3E%3C%2FmxCell%3E%3C%2Froot%3E%3C%2FmxGraphModel%3E&lt;/span&gt;mem_offset = 3&#39;b000" style="ellipse;whiteSpace=wrap;html=1;" vertex="1" parent="1">
          <mxGeometry x="-700" y="535.86" width="160" height="120" as="geometry" />
        </mxCell>
        <mxCell id="IhZPwNtbvATyJCZcTNzT-22" value="stall" style="text;html=1;align=center;verticalAlign=middle;resizable=0;points=[];autosize=1;strokeColor=none;fillColor=none;" vertex="1" parent="1">
          <mxGeometry x="-505" y="504.14" width="40" height="20" as="geometry" />
        </mxCell>
        <mxCell id="IhZPwNtbvATyJCZcTNzT-23" value="" style="curved=1;endArrow=classic;html=1;rounded=0;exitX=0.945;exitY=0.297;exitDx=0;exitDy=0;exitPerimeter=0;entryX=0.722;entryY=0.065;entryDx=0;entryDy=0;entryPerimeter=0;" edge="1" parent="1" source="IhZPwNtbvATyJCZcTNzT-21" target="IhZPwNtbvATyJCZcTNzT-21">
          <mxGeometry width="50" height="50" relative="1" as="geometry">
            <mxPoint x="-520" y="554.1399999999999" as="sourcePoint" />
            <mxPoint x="-470" y="504.14" as="targetPoint" />
            <Array as="points">
              <mxPoint x="-470" y="554.1399999999999" />
              <mxPoint x="-520" y="504.14" />
            </Array>
          </mxGeometry>
        </mxCell>
        <mxCell id="IhZPwNtbvATyJCZcTNzT-24" value="WB_1&lt;br&gt;&lt;br&gt;mem_wr = 1&lt;br&gt;tag_select = 1&#39;b1&lt;br&gt;mem_offset = 3&#39;b010" style="ellipse;whiteSpace=wrap;html=1;" vertex="1" parent="1">
          <mxGeometry x="-470" y="690" width="160" height="120" as="geometry" />
        </mxCell>
        <mxCell id="IhZPwNtbvATyJCZcTNzT-25" value="stall" style="text;html=1;align=center;verticalAlign=middle;resizable=0;points=[];autosize=1;strokeColor=none;fillColor=none;" vertex="1" parent="1">
          <mxGeometry x="-275" y="658.28" width="40" height="20" as="geometry" />
        </mxCell>
        <mxCell id="IhZPwNtbvATyJCZcTNzT-26" value="" style="curved=1;endArrow=classic;html=1;rounded=0;exitX=0.945;exitY=0.297;exitDx=0;exitDy=0;exitPerimeter=0;entryX=0.722;entryY=0.065;entryDx=0;entryDy=0;entryPerimeter=0;" edge="1" parent="1" source="IhZPwNtbvATyJCZcTNzT-24" target="IhZPwNtbvATyJCZcTNzT-24">
          <mxGeometry width="50" height="50" relative="1" as="geometry">
            <mxPoint x="-290" y="708.28" as="sourcePoint" />
            <mxPoint x="-240" y="658.28" as="targetPoint" />
            <Array as="points">
              <mxPoint x="-240" y="708.28" />
              <mxPoint x="-290" y="658.28" />
            </Array>
          </mxGeometry>
        </mxCell>
        <mxCell id="IhZPwNtbvATyJCZcTNzT-27" value="WB_2&lt;br&gt;&lt;br&gt;mem_wr = 1&lt;br&gt;tag_select = 1&#39;b1&lt;br&gt;mem_offset = 3&#39;b100" style="ellipse;whiteSpace=wrap;html=1;" vertex="1" parent="1">
          <mxGeometry x="-640" y="900" width="160" height="120" as="geometry" />
        </mxCell>
        <mxCell id="IhZPwNtbvATyJCZcTNzT-28" value="stall" style="text;html=1;align=center;verticalAlign=middle;resizable=0;points=[];autosize=1;strokeColor=none;fillColor=none;" vertex="1" parent="1">
          <mxGeometry x="-445" y="868.28" width="40" height="20" as="geometry" />
        </mxCell>
        <mxCell id="IhZPwNtbvATyJCZcTNzT-29" value="" style="curved=1;endArrow=classic;html=1;rounded=0;exitX=0.945;exitY=0.297;exitDx=0;exitDy=0;exitPerimeter=0;entryX=0.722;entryY=0.065;entryDx=0;entryDy=0;entryPerimeter=0;" edge="1" parent="1" source="IhZPwNtbvATyJCZcTNzT-27" target="IhZPwNtbvATyJCZcTNzT-27">
          <mxGeometry width="50" height="50" relative="1" as="geometry">
            <mxPoint x="-460" y="918.28" as="sourcePoint" />
            <mxPoint x="-410" y="868.28" as="targetPoint" />
            <Array as="points">
              <mxPoint x="-410" y="918.28" />
              <mxPoint x="-460" y="868.28" />
            </Array>
          </mxGeometry>
        </mxCell>
        <mxCell id="IhZPwNtbvATyJCZcTNzT-30" value="WB_3&lt;br&gt;&lt;br&gt;mem_wr = 1&lt;br&gt;tag_select = 1&#39;b1&lt;br&gt;mem_offset = 3&#39;b110" style="ellipse;whiteSpace=wrap;html=1;" vertex="1" parent="1">
          <mxGeometry x="-990" y="911.72" width="160" height="120" as="geometry" />
        </mxCell>
        <mxCell id="IhZPwNtbvATyJCZcTNzT-31" value="stall" style="text;html=1;align=center;verticalAlign=middle;resizable=0;points=[];autosize=1;strokeColor=none;fillColor=none;" vertex="1" parent="1">
          <mxGeometry x="-795" y="880" width="40" height="20" as="geometry" />
        </mxCell>
        <mxCell id="IhZPwNtbvATyJCZcTNzT-32" value="" style="curved=1;endArrow=classic;html=1;rounded=0;exitX=0.945;exitY=0.297;exitDx=0;exitDy=0;exitPerimeter=0;entryX=0.722;entryY=0.065;entryDx=0;entryDy=0;entryPerimeter=0;" edge="1" parent="1" source="IhZPwNtbvATyJCZcTNzT-30" target="IhZPwNtbvATyJCZcTNzT-30">
          <mxGeometry width="50" height="50" relative="1" as="geometry">
            <mxPoint x="-810" y="930" as="sourcePoint" />
            <mxPoint x="-760" y="880" as="targetPoint" />
            <Array as="points">
              <mxPoint x="-760" y="930" />
              <mxPoint x="-810" y="880" />
            </Array>
          </mxGeometry>
        </mxCell>
        <mxCell id="IhZPwNtbvATyJCZcTNzT-33" value="" style="endArrow=classic;html=1;rounded=0;entryX=0.019;entryY=0.376;entryDx=0;entryDy=0;entryPerimeter=0;" edge="1" parent="1" source="IhZPwNtbvATyJCZcTNzT-5" target="IhZPwNtbvATyJCZcTNzT-21">
          <mxGeometry width="50" height="50" relative="1" as="geometry">
            <mxPoint x="-880" y="660" as="sourcePoint" />
            <mxPoint x="-830" y="610" as="targetPoint" />
          </mxGeometry>
        </mxCell>
        <mxCell id="IhZPwNtbvATyJCZcTNzT-34" value="" style="endArrow=classic;html=1;rounded=0;exitX=1;exitY=1;exitDx=0;exitDy=0;" edge="1" parent="1" source="IhZPwNtbvATyJCZcTNzT-21" target="IhZPwNtbvATyJCZcTNzT-24">
          <mxGeometry width="50" height="50" relative="1" as="geometry">
            <mxPoint x="-640" y="720" as="sourcePoint" />
            <mxPoint x="-590" y="670" as="targetPoint" />
          </mxGeometry>
        </mxCell>
        <mxCell id="IhZPwNtbvATyJCZcTNzT-35" value="" style="endArrow=classic;html=1;rounded=0;exitX=0.04;exitY=0.769;exitDx=0;exitDy=0;exitPerimeter=0;entryX=0.5;entryY=0;entryDx=0;entryDy=0;" edge="1" parent="1" source="IhZPwNtbvATyJCZcTNzT-24" target="IhZPwNtbvATyJCZcTNzT-27">
          <mxGeometry width="50" height="50" relative="1" as="geometry">
            <mxPoint x="-630" y="760" as="sourcePoint" />
            <mxPoint x="-580" y="710" as="targetPoint" />
          </mxGeometry>
        </mxCell>
        <mxCell id="IhZPwNtbvATyJCZcTNzT-36" value="" style="endArrow=classic;html=1;rounded=0;exitX=-0.006;exitY=0.608;exitDx=0;exitDy=0;exitPerimeter=0;entryX=1.006;entryY=0.633;entryDx=0;entryDy=0;entryPerimeter=0;" edge="1" parent="1" source="IhZPwNtbvATyJCZcTNzT-27" target="IhZPwNtbvATyJCZcTNzT-30">
          <mxGeometry width="50" height="50" relative="1" as="geometry">
            <mxPoint x="-740" y="1170" as="sourcePoint" />
            <mxPoint x="-690" y="1120" as="targetPoint" />
          </mxGeometry>
        </mxCell>
        <mxCell id="IhZPwNtbvATyJCZcTNzT-37" value="&lt;font color=&quot;#ff0000&quot;&gt;(~(hit0 &amp;amp; valid0) &amp;amp; dirty0)&lt;br&gt;&amp;amp; (~(hit1 &amp;amp; valid1) &amp;amp; dirty1)&lt;/font&gt;" style="text;html=1;align=center;verticalAlign=middle;resizable=0;points=[];autosize=1;strokeColor=none;fillColor=none;" vertex="1" parent="1">
          <mxGeometry x="-815" y="505" width="160" height="30" as="geometry" />
        </mxCell>
        <mxCell id="IhZPwNtbvATyJCZcTNzT-38" value="~(hit &amp;amp; valid) &amp;amp; dirty" style="text;html=1;align=center;verticalAlign=middle;resizable=0;points=[];autosize=1;strokeColor=none;fillColor=none;" vertex="1" parent="1">
          <mxGeometry x="-525" y="645" width="120" height="20" as="geometry" />
        </mxCell>
        <mxCell id="IhZPwNtbvATyJCZcTNzT-39" value="~(hit &amp;amp; valid) &amp;amp; dirty" style="text;html=1;align=center;verticalAlign=middle;resizable=0;points=[];autosize=1;strokeColor=none;fillColor=none;" vertex="1" parent="1">
          <mxGeometry x="-650" y="815" width="120" height="20" as="geometry" />
        </mxCell>
        <mxCell id="IhZPwNtbvATyJCZcTNzT-40" value="~(hit &amp;amp; valid) &amp;amp; dirty" style="text;html=1;align=center;verticalAlign=middle;resizable=0;points=[];autosize=1;strokeColor=none;fillColor=none;" vertex="1" parent="1">
          <mxGeometry x="-795" y="950" width="120" height="20" as="geometry" />
        </mxCell>
        <mxCell id="IhZPwNtbvATyJCZcTNzT-41" value="" style="endArrow=classic;html=1;rounded=0;exitX=0.975;exitY=0.717;exitDx=0;exitDy=0;exitPerimeter=0;entryX=0.019;entryY=0.643;entryDx=0;entryDy=0;entryPerimeter=0;" edge="1" parent="1" source="IhZPwNtbvATyJCZcTNzT-4" target="IhZPwNtbvATyJCZcTNzT-21">
          <mxGeometry width="50" height="50" relative="1" as="geometry">
            <mxPoint x="-930" y="730" as="sourcePoint" />
            <mxPoint x="-880" y="680" as="targetPoint" />
          </mxGeometry>
        </mxCell>
        <mxCell id="IhZPwNtbvATyJCZcTNzT-42" value="&lt;font color=&quot;#ff0000&quot;&gt;(~(hit0 &amp;amp; valid0) &amp;amp; dirty0) &lt;br&gt;&amp;amp; (~(hit1 &amp;amp; valid1) &amp;amp; dirty1)&lt;/font&gt;" style="text;html=1;align=center;verticalAlign=middle;resizable=0;points=[];autosize=1;strokeColor=none;fillColor=none;" vertex="1" parent="1">
          <mxGeometry x="-1200" y="485" width="160" height="30" as="geometry" />
        </mxCell>
        <mxCell id="IhZPwNtbvATyJCZcTNzT-43" value="" style="endArrow=classic;html=1;rounded=0;exitX=0;exitY=0;exitDx=0;exitDy=0;" edge="1" parent="1" source="IhZPwNtbvATyJCZcTNzT-30">
          <mxGeometry width="50" height="50" relative="1" as="geometry">
            <mxPoint x="-910" y="790" as="sourcePoint" />
            <mxPoint x="-1290" y="770" as="targetPoint" />
          </mxGeometry>
        </mxCell>
        <mxCell id="IhZPwNtbvATyJCZcTNzT-44" value="ALLOC_1&lt;br&gt;&lt;br&gt;&lt;div style=&quot;text-align: left&quot;&gt;if (Rd) {&lt;/div&gt;&lt;blockquote style=&quot;margin: 0px 0px 0px 40px ; border: none ; padding: 0px&quot;&gt;&lt;div style=&quot;text-align: left&quot;&gt;mem_rd = 1&lt;/div&gt;&lt;div style=&quot;text-align: left&quot;&gt;mem_offset_select = 1&#39;b1&lt;br&gt;&lt;/div&gt;&lt;div style=&quot;text-align: left&quot;&gt;mem_offset = 3&#39;b010&lt;/div&gt;&lt;/blockquote&gt;&lt;div style=&quot;text-align: left&quot;&gt;}&lt;/div&gt;&lt;div style=&quot;text-align: left&quot;&gt;else if (Wr) {&lt;/div&gt;&lt;blockquote style=&quot;margin: 0 0 0 40px ; border: none ; padding: 0px&quot;&gt;&lt;div style=&quot;text-align: left&quot;&gt;&lt;span&gt;write = 1&lt;/span&gt;&lt;/div&gt;&lt;div style=&quot;text-align: left&quot;&gt;cache_offset_select = 2&#39;b01&lt;span&gt;&lt;br&gt;&lt;/span&gt;&lt;/div&gt;&lt;div style=&quot;text-align: left&quot;&gt;cache_select = out(1&#39;b0)&lt;/div&gt;&lt;div style=&quot;text-align: left&quot;&gt;cache_wr_offset = 3&#39;b010&lt;/div&gt;&lt;/blockquote&gt;&lt;div style=&quot;text-align: left&quot;&gt;}&lt;/div&gt;" style="ellipse;whiteSpace=wrap;html=1;" vertex="1" parent="1">
          <mxGeometry x="-1620" y="981.1600000000001" width="330" height="260" as="geometry" />
        </mxCell>
        <mxCell id="IhZPwNtbvATyJCZcTNzT-45" value="stall" style="text;html=1;align=center;verticalAlign=middle;resizable=0;points=[];autosize=1;strokeColor=none;fillColor=none;" vertex="1" parent="1">
          <mxGeometry x="-1580" y="953.8399999999999" width="40" height="20" as="geometry" />
        </mxCell>
        <mxCell id="IhZPwNtbvATyJCZcTNzT-46" value="" style="curved=1;endArrow=classic;html=1;rounded=0;entryX=0.396;entryY=-0.006;entryDx=0;entryDy=0;entryPerimeter=0;exitX=0.095;exitY=0.192;exitDx=0;exitDy=0;exitPerimeter=0;" edge="1" parent="1" source="IhZPwNtbvATyJCZcTNzT-44">
          <mxGeometry width="50" height="50" relative="1" as="geometry">
            <mxPoint x="-1587" y="1026.16" as="sourcePoint" />
            <mxPoint x="-1536.6400000000003" y="999.2799999999997" as="targetPoint" />
            <Array as="points">
              <mxPoint x="-1600" y="1020" />
              <mxPoint x="-1600" y="950" />
            </Array>
          </mxGeometry>
        </mxCell>
        <mxCell id="IhZPwNtbvATyJCZcTNzT-47" value="ALLOC_2&lt;br&gt;&lt;br&gt;&lt;div style=&quot;text-align: left&quot;&gt;if (Rd) {&lt;/div&gt;&lt;blockquote style=&quot;margin: 0px 0px 0px 40px ; border: none ; padding: 0px&quot;&gt;&lt;div style=&quot;text-align: left&quot;&gt;mem_rd = 1&lt;/div&gt;&lt;div style=&quot;text-align: left&quot;&gt;mem_offset_select = 1&#39;b1&lt;br&gt;&lt;/div&gt;&lt;div style=&quot;text-align: left&quot;&gt;mem_offset = 3&#39;b100&lt;/div&gt;&lt;div style=&quot;text-align: left&quot;&gt;//cache start reading from mem&lt;/div&gt;&lt;div style=&quot;text-align: left&quot;&gt;cache_select = mem(1&#39;b1)&lt;/div&gt;&lt;div style=&quot;text-align: left&quot;&gt;cache_rd_offset = 3&#39;b000&lt;/div&gt;&lt;div style=&quot;text-align: left&quot;&gt;cache_offset_select = 2&#39;b10&lt;/div&gt;&lt;div style=&quot;text-align: left&quot;&gt;write = 1&lt;/div&gt;&lt;/blockquote&gt;&lt;div style=&quot;text-align: left&quot;&gt;}&lt;/div&gt;&lt;div style=&quot;text-align: left&quot;&gt;else if (Wr){&lt;/div&gt;&lt;blockquote style=&quot;margin: 0 0 0 40px ; border: none ; padding: 0px&quot;&gt;&lt;div style=&quot;text-align: left&quot;&gt;&lt;span&gt;write = 1&lt;/span&gt;&lt;/div&gt;&lt;div style=&quot;text-align: left&quot;&gt;cache_offset_select = 2&#39;b01&lt;span&gt;&lt;br&gt;&lt;/span&gt;&lt;/div&gt;&lt;div style=&quot;text-align: left&quot;&gt;cache_select = out(1&#39;b0)&lt;/div&gt;&lt;div style=&quot;text-align: left&quot;&gt;cache_wr_offset = 3&#39;b100&lt;/div&gt;&lt;/blockquote&gt;&lt;div style=&quot;text-align: left&quot;&gt;}&lt;br&gt;&lt;/div&gt;" style="ellipse;whiteSpace=wrap;html=1;" vertex="1" parent="1">
          <mxGeometry x="-1200" y="1175" width="330" height="285" as="geometry" />
        </mxCell>
        <mxCell id="IhZPwNtbvATyJCZcTNzT-48" value="stall" style="text;html=1;align=center;verticalAlign=middle;resizable=0;points=[];autosize=1;strokeColor=none;fillColor=none;" vertex="1" parent="1">
          <mxGeometry x="-1160" y="1147.6799999999998" width="40" height="20" as="geometry" />
        </mxCell>
        <mxCell id="IhZPwNtbvATyJCZcTNzT-49" value="" style="curved=1;endArrow=classic;html=1;rounded=0;entryX=0.396;entryY=-0.006;entryDx=0;entryDy=0;entryPerimeter=0;exitX=0.095;exitY=0.192;exitDx=0;exitDy=0;exitPerimeter=0;" edge="1" parent="1" source="IhZPwNtbvATyJCZcTNzT-47">
          <mxGeometry width="50" height="50" relative="1" as="geometry">
            <mxPoint x="-1167" y="1220" as="sourcePoint" />
            <mxPoint x="-1116.6400000000003" y="1193.12" as="targetPoint" />
            <Array as="points">
              <mxPoint x="-1180" y="1213.84" />
              <mxPoint x="-1180" y="1143.8400000000001" />
            </Array>
          </mxGeometry>
        </mxCell>
        <mxCell id="IhZPwNtbvATyJCZcTNzT-50" value="ALLOC_3&lt;br&gt;&lt;br&gt;&lt;div style=&quot;text-align: left&quot;&gt;if (Rd) {&lt;/div&gt;&lt;blockquote style=&quot;margin: 0px 0px 0px 40px ; border: none ; padding: 0px&quot;&gt;&lt;div style=&quot;text-align: left&quot;&gt;mem_rd = 1&lt;/div&gt;&lt;div style=&quot;text-align: left&quot;&gt;mem_offset_select = 1&#39;b1&lt;br&gt;&lt;/div&gt;&lt;div style=&quot;text-align: left&quot;&gt;mem_offset = 3&#39;b110&lt;/div&gt;&lt;div style=&quot;text-align: left&quot;&gt;//cache start reading from mem&lt;br&gt;&lt;/div&gt;&lt;div style=&quot;text-align: left&quot;&gt;cache_select = mem(1&#39;b1)&lt;/div&gt;&lt;div style=&quot;text-align: left&quot;&gt;cache_rd_offset = 3&#39;b010&lt;/div&gt;&lt;div style=&quot;text-align: left&quot;&gt;cache_offset_select = 2&#39;b10&lt;br&gt;&lt;/div&gt;&lt;div style=&quot;text-align: left&quot;&gt;write = 1&lt;/div&gt;&lt;/blockquote&gt;&lt;div style=&quot;text-align: left&quot;&gt;}&lt;/div&gt;&lt;div style=&quot;text-align: left&quot;&gt;else if (Wr){&lt;/div&gt;&lt;blockquote style=&quot;margin: 0 0 0 40px ; border: none ; padding: 0px&quot;&gt;&lt;div style=&quot;text-align: left&quot;&gt;&lt;div&gt;write = 1&lt;/div&gt;&lt;div&gt;cache_offset_select = 2&#39;b01&lt;br&gt;&lt;/div&gt;&lt;/div&gt;&lt;div style=&quot;text-align: left&quot;&gt;&lt;div&gt;cache_select = out(1&#39;b0)&lt;/div&gt;&lt;/div&gt;&lt;div style=&quot;text-align: left&quot;&gt;&lt;div&gt;cache_wr_offset = 3&#39;b110&lt;/div&gt;&lt;/div&gt;&lt;/blockquote&gt;&lt;div style=&quot;text-align: left&quot;&gt;}&lt;/div&gt;" style="ellipse;whiteSpace=wrap;html=1;" vertex="1" parent="1">
          <mxGeometry x="-720" y="1151.16" width="330" height="288.84" as="geometry" />
        </mxCell>
        <mxCell id="IhZPwNtbvATyJCZcTNzT-51" value="stall" style="text;html=1;align=center;verticalAlign=middle;resizable=0;points=[];autosize=1;strokeColor=none;fillColor=none;" vertex="1" parent="1">
          <mxGeometry x="-680" y="1123.84" width="40" height="20" as="geometry" />
        </mxCell>
        <mxCell id="IhZPwNtbvATyJCZcTNzT-52" value="" style="curved=1;endArrow=classic;html=1;rounded=0;entryX=0.396;entryY=-0.006;entryDx=0;entryDy=0;entryPerimeter=0;exitX=0.095;exitY=0.192;exitDx=0;exitDy=0;exitPerimeter=0;" edge="1" parent="1" source="IhZPwNtbvATyJCZcTNzT-50">
          <mxGeometry width="50" height="50" relative="1" as="geometry">
            <mxPoint x="-687" y="1196.16" as="sourcePoint" />
            <mxPoint x="-636.6400000000003" y="1169.2799999999997" as="targetPoint" />
            <Array as="points">
              <mxPoint x="-700" y="1190" />
              <mxPoint x="-700" y="1120" />
            </Array>
          </mxGeometry>
        </mxCell>
        <mxCell id="IhZPwNtbvATyJCZcTNzT-53" value="ALLOC_4&lt;br&gt;&lt;blockquote style=&quot;margin: 0px 0px 0px 40px ; border: none ; padding: 0px&quot;&gt;&lt;div style=&quot;text-align: left&quot;&gt;&lt;br&gt;mem_rd = 1&lt;/div&gt;&lt;div style=&quot;text-align: left&quot;&gt;cache_select = mem(1&#39;b1)&lt;/div&gt;&lt;div style=&quot;text-align: left&quot;&gt;&lt;span&gt;cache_rd_offset = 3&#39;b100&lt;/span&gt;&lt;/div&gt;&lt;div style=&quot;text-align: left&quot;&gt;cache_offset_select = 2&#39;b10&lt;span&gt;&lt;br&gt;&lt;/span&gt;&lt;/div&gt;&lt;/blockquote&gt;&lt;div style=&quot;text-align: left&quot;&gt;&lt;span&gt;	&lt;/span&gt;&amp;nbsp; &amp;nbsp; &lt;span style=&quot;white-space: pre&quot;&gt;	&amp;nbsp;&lt;/span&gt;&amp;nbsp; &amp;nbsp;write = 1&lt;/div&gt;&lt;div style=&quot;text-align: left&quot;&gt;&lt;br&gt;&lt;/div&gt;" style="ellipse;whiteSpace=wrap;html=1;" vertex="1" parent="1">
          <mxGeometry x="-280" y="942.8800000000001" width="330" height="260" as="geometry" />
        </mxCell>
        <mxCell id="IhZPwNtbvATyJCZcTNzT-54" value="stall" style="text;html=1;align=center;verticalAlign=middle;resizable=0;points=[];autosize=1;strokeColor=none;fillColor=none;" vertex="1" parent="1">
          <mxGeometry x="-240" y="915.56" width="40" height="20" as="geometry" />
        </mxCell>
        <mxCell id="IhZPwNtbvATyJCZcTNzT-55" value="" style="curved=1;endArrow=classic;html=1;rounded=0;entryX=0.396;entryY=-0.006;entryDx=0;entryDy=0;entryPerimeter=0;exitX=0.095;exitY=0.192;exitDx=0;exitDy=0;exitPerimeter=0;" edge="1" parent="1" source="IhZPwNtbvATyJCZcTNzT-53">
          <mxGeometry width="50" height="50" relative="1" as="geometry">
            <mxPoint x="-247" y="987.8800000000001" as="sourcePoint" />
            <mxPoint x="-196.64000000000033" y="961" as="targetPoint" />
            <Array as="points">
              <mxPoint x="-260" y="981.72" />
              <mxPoint x="-260" y="911.72" />
            </Array>
          </mxGeometry>
        </mxCell>
        <mxCell id="IhZPwNtbvATyJCZcTNzT-56" value="ALLOC_5&lt;br&gt;&lt;br&gt;&lt;br&gt;&lt;blockquote style=&quot;margin: 0px 0px 0px 40px ; border: none ; padding: 0px&quot;&gt;&lt;div style=&quot;text-align: left&quot;&gt;mem_rd = 1&lt;/div&gt;&lt;div style=&quot;text-align: left&quot;&gt;cache_select = mem(1&#39;b1)&lt;/div&gt;&lt;div style=&quot;text-align: left&quot;&gt;cache_rd_offset = 3&#39;b110&lt;/div&gt;&lt;div style=&quot;text-align: left&quot;&gt;cache_offset_select = 2&#39;b10&lt;br&gt;&lt;/div&gt;&lt;/blockquote&gt;&lt;div style=&quot;text-align: left&quot;&gt;&lt;span style=&quot;white-space: pre&quot;&gt;	&lt;/span&gt;&amp;nbsp; &amp;nbsp; write = 1&lt;/div&gt;&lt;div style=&quot;text-align: left&quot;&gt;&lt;br&gt;&lt;/div&gt;" style="ellipse;whiteSpace=wrap;html=1;" vertex="1" parent="1">
          <mxGeometry x="-130" y="529.9999999999998" width="330" height="260" as="geometry" />
        </mxCell>
        <mxCell id="IhZPwNtbvATyJCZcTNzT-57" value="stall" style="text;html=1;align=center;verticalAlign=middle;resizable=0;points=[];autosize=1;strokeColor=none;fillColor=none;" vertex="1" parent="1">
          <mxGeometry x="-90" y="502.68000000000006" width="40" height="20" as="geometry" />
        </mxCell>
        <mxCell id="IhZPwNtbvATyJCZcTNzT-58" value="" style="curved=1;endArrow=classic;html=1;rounded=0;entryX=0.396;entryY=-0.006;entryDx=0;entryDy=0;entryPerimeter=0;exitX=0.095;exitY=0.192;exitDx=0;exitDy=0;exitPerimeter=0;" edge="1" parent="1" source="IhZPwNtbvATyJCZcTNzT-56">
          <mxGeometry width="50" height="50" relative="1" as="geometry">
            <mxPoint x="-97" y="574.9999999999998" as="sourcePoint" />
            <mxPoint x="-46.64000000000033" y="548.1199999999997" as="targetPoint" />
            <Array as="points">
              <mxPoint x="-110" y="568.8399999999999" />
              <mxPoint x="-110" y="498.8399999999999" />
            </Array>
          </mxGeometry>
        </mxCell>
        <mxCell id="IhZPwNtbvATyJCZcTNzT-59" value="DONE&lt;br&gt;&lt;br&gt;valid_in = 1&lt;br&gt;done = 1&lt;br&gt;cache_hit = 1&lt;br&gt;stall_out = 0" style="ellipse;whiteSpace=wrap;html=1;" vertex="1" parent="1">
          <mxGeometry x="-690" y="160" width="370" height="245" as="geometry" />
        </mxCell>
        <mxCell id="IhZPwNtbvATyJCZcTNzT-60" value="" style="endArrow=classic;html=1;rounded=0;exitX=0.5;exitY=1;exitDx=0;exitDy=0;entryX=0.5;entryY=0;entryDx=0;entryDy=0;" edge="1" parent="1" source="IhZPwNtbvATyJCZcTNzT-14" target="IhZPwNtbvATyJCZcTNzT-44">
          <mxGeometry width="50" height="50" relative="1" as="geometry">
            <mxPoint x="-1330" y="1010" as="sourcePoint" />
            <mxPoint x="-1280" y="960" as="targetPoint" />
          </mxGeometry>
        </mxCell>
        <mxCell id="IhZPwNtbvATyJCZcTNzT-61" value="" style="endArrow=classic;html=1;rounded=0;entryX=-0.005;entryY=0.399;entryDx=0;entryDy=0;entryPerimeter=0;" edge="1" parent="1" source="IhZPwNtbvATyJCZcTNzT-44" target="IhZPwNtbvATyJCZcTNzT-47">
          <mxGeometry width="50" height="50" relative="1" as="geometry">
            <mxPoint x="-1370" y="1370" as="sourcePoint" />
            <mxPoint x="-1320" y="1320" as="targetPoint" />
          </mxGeometry>
        </mxCell>
        <mxCell id="IhZPwNtbvATyJCZcTNzT-62" value="" style="endArrow=classic;html=1;rounded=0;exitX=1;exitY=0.5;exitDx=0;exitDy=0;entryX=0.008;entryY=0.571;entryDx=0;entryDy=0;entryPerimeter=0;" edge="1" parent="1" source="IhZPwNtbvATyJCZcTNzT-47" target="IhZPwNtbvATyJCZcTNzT-50">
          <mxGeometry width="50" height="50" relative="1" as="geometry">
            <mxPoint x="-830" y="1220" as="sourcePoint" />
            <mxPoint x="-780" y="1170" as="targetPoint" />
          </mxGeometry>
        </mxCell>
        <mxCell id="IhZPwNtbvATyJCZcTNzT-63" value="" style="endArrow=classic;html=1;rounded=0;exitX=0.979;exitY=0.337;exitDx=0;exitDy=0;exitPerimeter=0;" edge="1" parent="1" source="IhZPwNtbvATyJCZcTNzT-50" target="IhZPwNtbvATyJCZcTNzT-53">
          <mxGeometry width="50" height="50" relative="1" as="geometry">
            <mxPoint x="-370" y="1190" as="sourcePoint" />
            <mxPoint x="-320" y="1140" as="targetPoint" />
          </mxGeometry>
        </mxCell>
        <mxCell id="IhZPwNtbvATyJCZcTNzT-64" value="" style="endArrow=classic;html=1;rounded=0;exitX=0.704;exitY=0.026;exitDx=0;exitDy=0;exitPerimeter=0;" edge="1" parent="1" source="IhZPwNtbvATyJCZcTNzT-53" target="IhZPwNtbvATyJCZcTNzT-56">
          <mxGeometry width="50" height="50" relative="1" as="geometry">
            <mxPoint x="-10" y="920" as="sourcePoint" />
            <mxPoint x="40" y="870" as="targetPoint" />
          </mxGeometry>
        </mxCell>
        <mxCell id="IhZPwNtbvATyJCZcTNzT-65" value="" style="endArrow=classic;html=1;rounded=0;exitX=0.03;exitY=0.294;exitDx=0;exitDy=0;exitPerimeter=0;entryX=1;entryY=1;entryDx=0;entryDy=0;" edge="1" parent="1" source="IhZPwNtbvATyJCZcTNzT-56" target="IhZPwNtbvATyJCZcTNzT-59">
          <mxGeometry width="50" height="50" relative="1" as="geometry">
            <mxPoint x="-280" y="570" as="sourcePoint" />
            <mxPoint x="-230" y="520" as="targetPoint" />
          </mxGeometry>
        </mxCell>
        <mxCell id="IhZPwNtbvATyJCZcTNzT-66" value="" style="endArrow=classic;html=1;rounded=0;exitX=0;exitY=0.5;exitDx=0;exitDy=0;entryX=1;entryY=0.5;entryDx=0;entryDy=0;" edge="1" parent="1" source="IhZPwNtbvATyJCZcTNzT-59" target="IhZPwNtbvATyJCZcTNzT-1">
          <mxGeometry width="50" height="50" relative="1" as="geometry">
            <mxPoint x="-810" y="270" as="sourcePoint" />
            <mxPoint x="-760" y="220" as="targetPoint" />
          </mxGeometry>
        </mxCell>
        <mxCell id="IhZPwNtbvATyJCZcTNzT-67" value="" style="curved=1;endArrow=classic;html=1;rounded=0;exitX=1;exitY=1;exitDx=0;exitDy=0;entryX=1;entryY=0.5;entryDx=0;entryDy=0;" edge="1" parent="1" source="IhZPwNtbvATyJCZcTNzT-50" target="IhZPwNtbvATyJCZcTNzT-59">
          <mxGeometry width="50" height="50" relative="1" as="geometry">
            <mxPoint x="-220" y="1460" as="sourcePoint" />
            <mxPoint x="-170" y="1410" as="targetPoint" />
            <Array as="points">
              <mxPoint x="-200" y="1400" />
              <mxPoint x="-110" y="1350" />
              <mxPoint x="390" y="1020" />
              <mxPoint x="680" y="260" />
            </Array>
          </mxGeometry>
        </mxCell>
        <mxCell id="IhZPwNtbvATyJCZcTNzT-68" value="if(&lt;span style=&quot;text-align: left&quot;&gt;cache_wr_offset == 3&#39;b110&lt;/span&gt;)" style="text;html=1;align=center;verticalAlign=middle;resizable=0;points=[];autosize=1;strokeColor=none;fillColor=none;" vertex="1" parent="1">
          <mxGeometry x="-395" y="1370" width="170" height="20" as="geometry" />
        </mxCell>
        <mxCell id="IhZPwNtbvATyJCZcTNzT-69" value="&lt;font color=&quot;#ff0000&quot;&gt;(~(hit0 &amp;amp; valid0) &amp;amp; ~dirty0) &lt;br&gt;&amp;amp; (~(hit1 &amp;amp; valid1) &amp;amp; ~dirty1)&lt;/font&gt;" style="text;html=1;align=center;verticalAlign=middle;resizable=0;points=[];autosize=1;strokeColor=none;fillColor=none;" vertex="1" parent="1">
          <mxGeometry x="-1525" y="537.6800000000001" width="170" height="30" as="geometry" />
        </mxCell>
        <mxCell id="IhZPwNtbvATyJCZcTNzT-70" value="&lt;font color=&quot;#ff0000&quot;&gt;(~(hit0 &amp;amp; valid0) &amp;amp; ~dirty0) &lt;br&gt;&amp;amp; (~(hit1 &amp;amp; valid1) &amp;amp; ~dirty1)&lt;/font&gt;" style="text;html=1;align=center;verticalAlign=middle;resizable=0;points=[];autosize=1;strokeColor=none;fillColor=none;" vertex="1" parent="1">
          <mxGeometry x="-1330" y="580.86" width="170" height="30" as="geometry" />
        </mxCell>
        <mxCell id="IhZPwNtbvATyJCZcTNzT-71" value="&lt;font color=&quot;#ff0000&quot;&gt;(hit0 &amp;amp; valid0)&lt;br&gt;| (hit1 &amp;amp; valid1)&lt;/font&gt;" style="text;html=1;align=center;verticalAlign=middle;resizable=0;points=[];autosize=1;strokeColor=none;fillColor=none;" vertex="1" parent="1">
          <mxGeometry x="-1077" y="440" width="100" height="30" as="geometry" />
        </mxCell>
      </root>
    </mxGraphModel>
  </diagram>
</mxfile>
